<svg version="1.1" id="Layer_1" xmlns="http://www.w3.org/2000/svg" xmlns:xlink="http://www.w3.org/1999/xlink" x="0px" y="0px"
	 width="100%" viewBox="0 0 453 87" enable-background="new 0 0 453 87" xml:space="preserve">
<path fill="#000000" opacity="1.000000" stroke="none" 
	d="
M331.000000,88.000000 
	C220.666687,88.000000 110.833359,88.000000 1.000030,88.000000 
	C1.000020,59.000015 1.000020,30.000032 1.000010,1.000037 
	C151.999969,1.000025 302.999939,1.000025 453.999939,1.000012 
	C453.999939,29.999962 453.999939,58.999924 453.999969,87.999939 
	C413.166656,88.000000 372.333344,88.000000 331.000000,88.000000 
M36.928669,60.313786 
	C36.321770,59.673092 35.714870,59.032398 35.107964,58.391701 
	C34.803391,58.853958 34.498821,59.316212 34.194252,59.778469 
	C35.128738,60.186409 36.063225,60.594349 36.994297,61.581718 
	C36.984516,61.967869 36.974731,62.354019 36.830029,63.331257 
	C36.888119,63.524826 36.946209,63.718391 36.257740,63.823009 
	C34.499096,63.188602 32.740448,62.554192 31.106293,61.261017 
	C31.696238,60.184612 32.286182,59.108204 32.876129,58.031799 
	C32.535835,57.752319 32.195545,57.472836 31.855251,57.193352 
	C30.620695,58.256557 29.386139,59.319767 27.903742,59.574257 
	C28.543344,53.584175 37.484116,48.249222 44.337574,50.611034 
	C48.123058,51.327965 49.743187,53.750137 49.879742,57.462627 
	C49.945923,59.261948 50.244175,61.052734 49.767651,63.113659 
	C49.161606,64.103096 48.555565,65.092545 47.949524,66.081985 
	C48.256496,66.299583 48.563473,66.517189 48.870445,66.734787 
	C49.515701,66.167267 50.160957,65.599739 51.023994,65.843292 
	C51.409264,67.557915 51.794537,69.272537 52.144726,70.831024 
	C54.560543,70.831024 56.506786,70.831024 58.953712,70.831024 
	C58.953712,61.383667 58.953712,52.148663 58.953712,43.001995 
	C60.996590,42.646336 62.535397,42.378433 63.427299,42.223152 
	C60.059719,38.545662 56.639107,34.810257 52.277782,30.047567 
	C50.381023,37.179951 48.739536,43.352440 47.056519,49.681095 
	C46.858044,49.631966 45.915771,49.398727 44.372253,48.805573 
	C43.178463,48.153065 41.984673,47.500553 42.071510,47.548019 
	C44.674641,42.235603 47.017384,37.480732 49.337074,32.714634 
	C53.043766,25.098768 44.500160,24.303467 42.203129,20.025028 
	C41.184166,18.127117 39.697586,16.480265 38.010864,14.149597 
	C28.506294,24.529737 20.027527,33.789574 11.548761,43.049412 
	C11.161627,42.769810 10.774492,42.490204 10.387359,42.210602 
	C12.109907,42.474590 13.832457,42.738583 16.048298,43.078175 
	C16.048298,52.436611 16.048298,61.655979 16.048298,71.050522 
	C25.049540,71.050522 33.525444,71.092964 42.000031,71.006462 
	C43.328518,70.992905 44.651028,70.393753 46.051731,69.361259 
	C46.605389,64.989868 44.953140,63.621609 40.219143,65.082253 
	C39.495716,65.015152 38.772293,64.948051 38.018272,64.437073 
	C38.018272,64.437073 38.111137,64.001938 38.674423,63.687687 
	C39.427910,62.788109 40.181400,61.888531 41.617477,60.174015 
	C39.344685,60.579647 38.173458,60.788681 36.928669,60.313786 
M299.559113,60.469543 
	C299.559113,51.558193 299.559113,42.646839 299.559113,33.348724 
	C297.387665,33.517025 295.986572,33.625618 294.153564,33.767689 
	C294.153564,43.321522 294.153564,52.518459 294.153564,61.715401 
	C287.574860,53.537045 281.840973,45.105461 276.378845,36.501324 
	C274.554108,33.626934 272.583496,32.626450 269.391052,33.961327 
	C269.391052,46.610630 269.391052,59.161995 269.391052,71.753311 
	C271.090912,71.753311 272.498108,71.753311 274.436157,71.753311 
	C274.436157,62.274940 274.436157,53.056705 274.436157,43.838474 
	C276.340881,44.844475 277.265594,46.140087 278.142853,47.467098 
	C282.815521,54.535667 287.595612,61.537598 292.083923,68.721634 
	C293.938324,71.689774 295.962677,72.937080 299.558838,71.399178 
	C299.558838,68.085503 299.558838,64.770981 299.559113,60.469543 
M249.288345,41.178722 
	C236.585770,41.712074 229.803635,52.082657 234.584320,63.662716 
	C236.970428,69.442513 242.389587,72.842499 248.821106,72.594940 
	C255.491318,72.338196 259.576202,69.358498 261.405853,62.470222 
	C259.171051,63.062347 256.867920,63.814552 255.253601,65.310219 
	C252.043030,68.284813 248.478683,68.847580 244.674561,67.413040 
	C241.063034,66.051132 238.683517,63.485001 239.124100,58.738197 
	C247.042023,58.738197 254.794067,58.738197 262.477173,58.738197 
	C263.639526,48.859459 259.801819,43.584473 249.288345,41.178722 
M335.192169,52.384312 
	C332.867126,44.488182 326.928406,40.334484 319.291321,41.262833 
	C311.334991,42.229988 306.310211,47.878811 306.054993,56.142994 
	C305.795776,64.536636 310.390045,70.755554 317.913391,72.194756 
	C325.812836,73.705925 331.843262,70.466423 334.035828,62.589130 
	C331.806091,63.138649 329.598419,63.937660 327.965271,65.384972 
	C324.561035,68.401802 320.875305,68.904327 316.906036,67.201195 
	C313.502930,65.741005 311.424957,63.223850 311.963684,58.822823 
	C319.783264,58.822823 327.375519,58.822823 335.355530,58.822823 
	C335.355530,56.706776 335.355530,54.941181 335.192169,52.384312 
M82.418396,72.432175 
	C83.246857,72.357857 84.083015,72.331909 84.902550,72.201500 
	C90.936386,71.241295 94.753571,67.567581 95.142494,62.375629 
	C95.557930,56.829865 93.260635,53.784554 86.920181,51.575226 
	C83.945061,50.538540 80.807419,49.864460 77.984406,48.520050 
	C74.037285,46.640305 73.484604,41.654388 76.657257,39.047100 
	C79.652229,36.585835 85.701599,36.951130 87.855156,40.362194 
	C89.806656,43.453209 91.907394,43.429546 94.708984,42.559795 
	C93.861305,33.937569 83.224464,31.587883 76.990662,33.784489 
	C72.209801,35.469112 69.401657,38.627728 69.279236,43.659794 
	C69.159676,48.574162 71.819908,51.726620 76.504601,53.207504 
	C79.822701,54.256393 83.251045,55.088814 86.391121,56.536419 
	C90.686043,58.516418 91.303329,63.407490 87.925430,66.303398 
	C84.461624,69.272957 77.623993,68.626434 75.688622,64.566025 
	C73.959625,60.938602 71.832581,61.599514 69.069115,62.189590 
	C70.902077,69.321625 73.520081,71.385384 82.418396,72.432175 
M128.254990,65.592056 
	C128.247665,64.643074 128.240326,63.694096 128.232986,62.745117 
	C126.412544,63.439434 124.089119,63.651604 122.870529,64.922836 
	C119.808578,68.117096 116.255440,68.824303 112.410378,67.628937 
	C108.489777,66.410103 106.105286,63.601959 106.144608,58.808891 
	C114.079750,58.808891 121.843689,58.808891 129.551147,58.808891 
	C130.719772,50.122169 127.400429,44.151470 120.440414,41.976658 
	C112.715271,39.562763 105.036827,42.737026 101.984985,49.606129 
	C98.707718,56.982616 100.997955,66.143654 107.123543,70.160622 
	C113.804482,74.541763 122.367607,72.937386 128.254990,65.592056 
M404.695770,63.025295 
	C401.753754,62.770535 402.371460,64.493134 403.004791,66.140717 
	C404.738098,70.649719 410.888245,73.360123 417.011871,72.348412 
	C422.172180,71.495857 425.698883,68.373550 425.774506,64.224075 
	C425.862701,59.386795 422.613953,57.241714 418.523621,55.907177 
	C415.844116,55.032936 413.038910,54.363686 410.587769,53.047913 
	C409.409363,52.415344 408.151886,50.382408 408.332336,49.197079 
	C408.516357,47.988174 410.517639,46.065395 411.552429,46.168579 
	C414.285400,46.441109 416.995483,47.472061 419.578491,48.532803 
	C421.282288,49.232487 422.750275,50.506390 425.247528,52.120045 
	C424.229401,43.452099 418.216766,39.775631 410.743256,41.616646 
	C406.566193,42.645622 403.306641,44.673473 402.986816,49.479511 
	C402.674408,54.173656 405.777618,56.354927 409.549805,57.794842 
	C412.182587,58.799828 415.096741,59.161839 417.587585,60.406631 
	C418.924225,61.074627 420.566864,63.149982 420.379364,64.318832 
	C420.162170,65.672661 418.256958,67.405136 416.783203,67.776169 
	C413.452362,68.614716 410.170807,68.235420 408.041199,64.764557 
	C407.548462,63.961464 406.344696,63.594662 404.695770,63.025295 
M212.058334,46.004559 
	C215.855347,45.450031 219.200912,45.842979 221.982315,49.096272 
	C223.272995,50.605965 225.523010,51.295494 228.356827,52.952477 
	C226.528931,44.242188 220.270859,40.203457 212.649399,41.270161 
	C204.135986,42.461704 199.368927,48.940796 199.933517,58.552769 
	C200.420639,66.845551 206.322144,72.560928 214.465378,72.626312 
	C221.773056,72.684990 227.172241,68.503586 227.871368,60.669903 
	C225.226776,62.500561 223.154465,63.429230 221.783905,64.978661 
	C217.671921,69.627327 210.016052,69.158852 206.796982,63.842770 
	C203.076416,57.698521 205.023972,49.985291 212.058334,46.004559 
M390.126648,44.759682 
	C390.123383,49.256157 390.186493,53.753899 390.100891,58.248806 
	C389.979645,64.617500 387.190125,67.862213 381.883026,67.992828 
	C376.342743,68.129189 373.344818,64.851311 373.185577,58.186817 
	C373.059143,52.893417 373.160126,47.594589 373.160126,42.069225 
	C371.349304,42.069225 369.958130,42.069225 368.231171,42.069225 
	C368.231171,48.753078 367.870850,55.231998 368.333527,61.651600 
	C368.787231,67.947197 372.888519,72.041206 378.960175,72.184143 
	C382.555847,72.268806 386.186462,70.869698 389.285645,70.242203 
	C391.021973,70.941414 392.791443,71.653976 394.991821,72.540062 
	C394.991821,61.689884 394.991821,51.942905 394.991821,40.813744 
	C392.863129,42.127750 391.500183,42.969097 390.126648,44.759682 
M179.278809,51.870190 
	C180.532471,48.688168 181.786148,45.506142 183.038422,42.327694 
	C179.077499,40.813461 177.339066,42.305065 176.187744,45.786732 
	C173.937866,52.590485 171.321167,59.272942 168.469223,67.062988 
	C165.606171,59.257961 162.997543,52.643669 160.779266,45.900944 
	C159.571686,42.230324 157.737808,40.775707 153.799408,42.316490 
	C157.280853,51.234528 160.603760,60.058453 164.242554,68.750137 
	C164.826401,70.144753 166.667435,71.379692 168.199463,71.928017 
	C170.734879,72.835464 171.926422,71.122078 172.760651,68.823662 
	C174.737427,63.377338 176.926651,58.008129 179.278809,51.870190 
M361.302612,41.822311 
	C359.748718,42.738659 357.812012,43.336216 356.725006,44.641426 
	C354.792450,46.961838 353.374603,49.710934 351.490326,52.675934 
	C349.581940,49.738140 347.838409,47.479679 346.561401,44.982632 
	C344.897064,41.728058 342.581390,41.155441 339.054810,42.405621 
	C341.708344,46.553123 344.413940,50.346855 346.588318,54.423897 
	C347.318634,55.793301 347.317596,58.221851 346.577057,59.581390 
	C344.336243,63.695301 341.569031,67.522499 338.791260,71.793076 
	C347.491608,73.223953 346.366547,64.192886 351.298767,61.716923 
	C352.820129,64.056969 354.567139,66.295624 355.820435,68.783020 
	C357.460815,72.038651 359.755035,72.677155 363.322296,71.470100 
	C361.854309,69.127480 360.844391,66.760872 359.185883,65.007919 
	C353.775757,59.289577 354.167145,53.986031 359.318726,48.304058 
	C360.802185,46.667892 361.193268,44.041340 361.302612,41.822311 
M151.668900,43.594891 
	C150.773315,42.849129 149.642792,41.314220 149.024063,41.498421 
	C146.723862,42.183208 144.591995,43.433357 143.532440,43.934334 
	C141.086014,42.929646 139.211227,42.159718 136.872055,41.199078 
	C136.872055,52.130142 136.872055,61.902069 136.872055,72.026253 
	C138.580688,71.949478 140.131866,71.879776 141.917145,71.799553 
	C141.917145,66.101212 141.919998,60.807781 141.916306,55.514355 
	C141.912857,50.593777 143.661682,47.192104 149.126099,46.559689 
	C150.045410,46.453297 150.823807,45.129257 151.668900,43.594891 
M188.000000,47.585915 
	C188.000000,55.686520 188.000000,63.787125 188.000000,72.072197 
	C189.992920,71.965927 191.401535,71.890816 192.800385,71.816223 
	C192.800385,61.662575 192.800385,51.902832 192.800385,42.020638 
	C191.181656,42.020638 189.779678,42.020638 188.000000,42.020638 
	C188.000000,43.677437 188.000000,45.142555 188.000000,47.585915 
M190.539658,30.029917 
	C187.823410,30.608896 186.333664,32.141315 187.593658,34.889999 
	C188.028519,35.838612 189.713058,36.933205 190.613708,36.771858 
	C191.803726,36.558662 193.737000,35.068722 193.652664,34.318455 
	C193.486618,32.841251 192.150665,31.495546 190.539658,30.029917 
M61.669567,28.952477 
	C60.839626,27.706541 60.009689,26.460606 58.350185,23.969299 
	C58.182079,27.314419 58.057751,29.788355 57.871132,33.501839 
	C59.829853,31.198923 60.602776,30.290180 61.669567,28.952477 
M64.456825,17.377584 
	C65.463577,17.731756 66.470337,18.085928 68.082863,18.653208 
	C67.760612,16.948484 67.547119,15.819102 67.333626,14.689719 
	C66.880569,14.403305 66.427521,14.116891 65.974464,13.830476 
	C65.443634,14.806867 64.912796,15.783257 64.456825,17.377584 
M71.958435,26.830379 
	C72.014023,25.841402 72.069611,24.852425 72.189171,22.725298 
	C70.527214,24.758673 69.753868,25.704855 68.725754,26.962736 
	C70.019424,26.962736 70.672852,26.962736 71.958435,26.830379 
M58.925838,15.200314 
	C59.215256,14.813538 59.504673,14.426762 59.794090,14.039988 
	C59.417866,13.861974 59.041645,13.683961 58.665421,13.505947 
	C58.618561,13.940962 58.571697,14.375977 58.925838,15.200314 
M54.878334,20.393501 
	C54.924496,20.812931 54.970657,21.232363 55.016819,21.651794 
	C55.277832,21.477959 55.784771,21.224693 55.758583,21.143610 
	C55.623226,20.724518 55.351437,20.349489 54.878334,20.393501 
M49.471416,70.609215 
	C49.181473,70.878288 48.891533,71.147369 48.601589,71.416443 
	C48.705265,71.519012 48.889153,71.719467 48.900894,71.709846 
	C49.193073,71.470398 49.467075,71.208763 49.471416,70.609215 
M42.590485,61.517426 
	C42.590485,61.517426 42.476738,61.585934 42.590485,61.517426 
M55.408401,28.482441 
	C55.408401,28.482441 55.523357,28.412931 55.408401,28.482441 
z"/>
<path fill="#59D9DE" opacity="1.000000" stroke="none" 
	d="
M45.976299,70.065361 
	C44.651028,70.393753 43.328518,70.992905 42.000031,71.006462 
	C33.525444,71.092964 25.049540,71.050522 16.048298,71.050522 
	C16.048298,61.655979 16.048298,52.436611 16.048298,43.078175 
	C13.832457,42.738583 12.109907,42.474590 10.387359,42.210602 
	C10.774492,42.490204 11.161627,42.769810 11.548761,43.049412 
	C20.027527,33.789574 28.506294,24.529737 38.010864,14.149597 
	C39.697586,16.480265 41.184166,18.127117 42.203129,20.025028 
	C44.500160,24.303467 53.043766,25.098768 49.337074,32.714634 
	C47.017384,37.480732 44.674641,42.235603 42.071510,47.548019 
	C41.984673,47.500553 43.178463,48.153065 44.529705,49.193600 
	C44.397171,49.747322 44.107185,49.913017 43.817200,50.078712 
	C37.484116,48.249222 28.543344,53.584175 27.837790,60.083389 
	C27.483192,61.283821 27.194548,61.975124 26.513226,63.606884 
	C28.583996,62.825069 29.782900,62.372425 30.981804,61.919785 
	C32.740448,62.554192 34.499096,63.188602 36.624664,64.176048 
	C37.344013,64.646370 37.696442,64.763657 38.048866,64.880951 
	C38.772293,64.948051 39.495716,65.015152 40.690292,65.424927 
	C42.766392,67.200188 44.371346,68.632774 45.976299,70.065361 
M39.672897,35.988228 
	C39.010712,37.743217 38.348522,39.498211 37.547115,41.622177 
	C40.301685,41.622177 41.862625,41.622177 44.042843,41.622177 
	C43.356712,39.097546 45.780174,35.497459 39.672897,35.988228 
M43.018700,34.395531 
	C43.358135,32.693691 43.697571,30.991854 44.058163,29.183945 
	C41.636265,29.183945 40.058849,29.183945 38.423592,29.183945 
	C37.515469,32.715729 37.626690,35.251930 43.018700,34.395531 
M36.290848,29.805208 
	C34.645931,29.458925 33.001015,29.112642 31.049864,28.701891 
	C31.049864,30.941689 31.049864,32.510857 31.049864,34.173580 
	C34.376801,34.948883 37.046288,35.212425 36.290848,29.805208 
M31.737360,41.728294 
	C33.146790,41.728294 34.556217,41.728294 36.146370,41.728294 
	C36.146370,39.627121 36.146370,38.049198 36.146370,36.365593 
	C34.289146,36.365593 32.623104,36.365593 30.756907,36.365593 
	C30.877609,38.202740 30.973478,39.661880 31.737360,41.728294 
z"/>
<path fill="#56D3D8" opacity="1.000000" stroke="none" 
	d="
M299.558960,60.963001 
	C299.558838,64.770981 299.558838,68.085503 299.558838,71.399178 
	C295.962677,72.937080 293.938324,71.689774 292.083923,68.721634 
	C287.595612,61.537598 282.815521,54.535667 278.142853,47.467098 
	C277.265594,46.140087 276.340881,44.844475 274.436157,43.838474 
	C274.436157,53.056705 274.436157,62.274940 274.436157,71.753311 
	C272.498108,71.753311 271.090912,71.753311 269.391052,71.753311 
	C269.391052,59.161995 269.391052,46.610630 269.391052,33.961327 
	C272.583496,32.626450 274.554108,33.626934 276.378845,36.501324 
	C281.840973,45.105461 287.574860,53.537045 294.153564,61.715401 
	C294.153564,52.518459 294.153564,43.321522 294.153564,33.767689 
	C295.986572,33.625618 297.387665,33.517025 299.559113,33.348724 
	C299.559113,42.646839 299.559113,51.558193 299.558960,60.963001 
z"/>
<path fill="#EEEEEE" opacity="1.000000" stroke="none" 
	d="
M249.700516,41.209549 
	C259.801819,43.584473 263.639526,48.859459 262.477173,58.738197 
	C254.794067,58.738197 247.042023,58.738197 239.124100,58.738197 
	C238.683517,63.485001 241.063034,66.051132 244.674561,67.413040 
	C248.478683,68.847580 252.043030,68.284813 255.253601,65.310219 
	C256.867920,63.814552 259.171051,63.062347 261.405853,62.470222 
	C259.576202,69.358498 255.491318,72.338196 248.821106,72.594940 
	C242.389587,72.842499 236.970428,69.442513 234.584320,63.662716 
	C229.803635,52.082657 236.585770,41.712074 249.700516,41.209549 
M257.135803,51.990021 
	C254.537796,46.611248 251.008026,44.649990 245.681641,45.987373 
	C241.403564,47.061543 239.093369,49.872139 238.892075,54.714817 
	C244.430206,54.714817 249.546402,54.804863 254.653534,54.630203 
	C255.552353,54.599468 256.413300,53.460865 257.135803,51.990021 
z"/>
<path fill="#57D4D9" opacity="1.000000" stroke="none" 
	d="
M335.273865,52.779945 
	C335.355530,54.941181 335.355530,56.706776 335.355530,58.822823 
	C327.375519,58.822823 319.783264,58.822823 311.963684,58.822823 
	C311.424957,63.223850 313.502930,65.741005 316.906036,67.201195 
	C320.875305,68.904327 324.561035,68.401802 327.965271,65.384972 
	C329.598419,63.937660 331.806091,63.138649 334.035828,62.589130 
	C331.843262,70.466423 325.812836,73.705925 317.913391,72.194756 
	C310.390045,70.755554 305.795776,64.536636 306.054993,56.142994 
	C306.310211,47.878811 311.334991,42.229988 319.291321,41.262833 
	C326.928406,40.334484 332.867126,44.488182 335.273865,52.779945 
M322.420959,54.749722 
	C324.868561,54.749722 327.316162,54.749722 329.765778,54.749722 
	C329.657013,48.819977 326.636108,45.820080 321.175354,45.724327 
	C315.535645,45.625435 312.297272,48.684883 312.100433,54.749641 
	C315.224731,54.749641 318.347412,54.749641 322.420959,54.749722 
z"/>
<path fill="#F2F2F2" opacity="1.000000" stroke="none" 
	d="
M82.022781,72.418198 
	C73.520081,71.385384 70.902077,69.321625 69.069115,62.189590 
	C71.832581,61.599514 73.959625,60.938602 75.688622,64.566025 
	C77.623993,68.626434 84.461624,69.272957 87.925430,66.303398 
	C91.303329,63.407490 90.686043,58.516418 86.391121,56.536419 
	C83.251045,55.088814 79.822701,54.256393 76.504601,53.207504 
	C71.819908,51.726620 69.159676,48.574162 69.279236,43.659794 
	C69.401657,38.627728 72.209801,35.469112 76.990662,33.784489 
	C83.224464,31.587883 93.861305,33.937569 94.708984,42.559795 
	C91.907394,43.429546 89.806656,43.453209 87.855156,40.362194 
	C85.701599,36.951130 79.652229,36.585835 76.657257,39.047100 
	C73.484604,41.654388 74.037285,46.640305 77.984406,48.520050 
	C80.807419,49.864460 83.945061,50.538540 86.920181,51.575226 
	C93.260635,53.784554 95.557930,56.829865 95.142494,62.375629 
	C94.753571,67.567581 90.936386,71.241295 84.902550,72.201500 
	C84.083015,72.331909 83.246857,72.357857 82.022781,72.418198 
z"/>
<path fill="#F2F2F2" opacity="1.000000" stroke="none" 
	d="
M128.094757,65.926773 
	C122.367607,72.937386 113.804482,74.541763 107.123543,70.160622 
	C100.997955,66.143654 98.707718,56.982616 101.984985,49.606129 
	C105.036827,42.737026 112.715271,39.562763 120.440414,41.976658 
	C127.400429,44.151470 130.719772,50.122169 129.551147,58.808891 
	C121.843689,58.808891 114.079750,58.808891 106.144608,58.808891 
	C106.105286,63.601959 108.489777,66.410103 112.410378,67.628937 
	C116.255440,68.824303 119.808578,68.117096 122.870529,64.922836 
	C124.089119,63.651604 126.412544,63.439434 128.232986,62.745117 
	C128.240326,63.694096 128.247665,64.643074 128.094757,65.926773 
M112.997276,45.921516 
	C108.718628,47.129265 106.391869,49.866272 106.111633,54.517433 
	C112.401840,54.517433 118.446442,54.517433 124.511208,54.517433 
	C123.847839,47.918686 121.173363,45.788383 112.997276,45.921516 
z"/>
<path fill="#58D8DD" opacity="1.000000" stroke="none" 
	d="
M44.077385,50.344872 
	C44.107185,49.913017 44.397171,49.747322 44.830326,49.373558 
	C45.915771,49.398727 46.858044,49.631966 47.056519,49.681095 
	C48.739536,43.352440 50.381023,37.179951 52.277782,30.047567 
	C56.639107,34.810257 60.059719,38.545662 63.427299,42.223152 
	C62.535397,42.378433 60.996590,42.646336 58.953712,43.001995 
	C58.953712,52.148663 58.953712,61.383667 58.953712,70.831024 
	C56.506786,70.831024 54.560543,70.831024 52.144726,70.831024 
	C51.794537,69.272537 51.409264,67.557915 50.966743,65.154678 
	C50.752117,63.926498 50.594738,63.386940 50.437359,62.847382 
	C50.244175,61.052734 49.945923,59.261948 49.879742,57.462627 
	C49.743187,53.750137 48.123058,51.327965 44.077385,50.344872 
z"/>
<path fill="#56D2D7" opacity="1.000000" stroke="none" 
	d="
M405.081940,63.026192 
	C406.344696,63.594662 407.548462,63.961464 408.041199,64.764557 
	C410.170807,68.235420 413.452362,68.614716 416.783203,67.776169 
	C418.256958,67.405136 420.162170,65.672661 420.379364,64.318832 
	C420.566864,63.149982 418.924225,61.074627 417.587585,60.406631 
	C415.096741,59.161839 412.182587,58.799828 409.549805,57.794842 
	C405.777618,56.354927 402.674408,54.173656 402.986816,49.479511 
	C403.306641,44.673473 406.566193,42.645622 410.743256,41.616646 
	C418.216766,39.775631 424.229401,43.452099 425.247528,52.120045 
	C422.750275,50.506390 421.282288,49.232487 419.578491,48.532803 
	C416.995483,47.472061 414.285400,46.441109 411.552429,46.168579 
	C410.517639,46.065395 408.516357,47.988174 408.332336,49.197079 
	C408.151886,50.382408 409.409363,52.415344 410.587769,53.047913 
	C413.038910,54.363686 415.844116,55.032936 418.523621,55.907177 
	C422.613953,57.241714 425.862701,59.386795 425.774506,64.224075 
	C425.698883,68.373550 422.172180,71.495857 417.011871,72.348412 
	C410.888245,73.360123 404.738098,70.649719 403.004791,66.140717 
	C402.371460,64.493134 401.753754,62.770535 405.081940,63.026192 
z"/>
<path fill="#EEEEEE" opacity="1.000000" stroke="none" 
	d="
M211.658081,46.090141 
	C205.023972,49.985291 203.076416,57.698521 206.796982,63.842770 
	C210.016052,69.158852 217.671921,69.627327 221.783905,64.978661 
	C223.154465,63.429230 225.226776,62.500561 227.871368,60.669903 
	C227.172241,68.503586 221.773056,72.684990 214.465378,72.626312 
	C206.322144,72.560928 200.420639,66.845551 199.933517,58.552769 
	C199.368927,48.940796 204.135986,42.461704 212.649399,41.270161 
	C220.270859,40.203457 226.528931,44.242188 228.356827,52.952477 
	C225.523010,51.295494 223.272995,50.605965 221.982315,49.096272 
	C219.200912,45.842979 215.855347,45.450031 211.658081,46.090141 
z"/>
<path fill="#58D8DC" opacity="1.000000" stroke="none" 
	d="
M390.131927,44.285061 
	C391.500183,42.969097 392.863129,42.127750 394.991821,40.813744 
	C394.991821,51.942905 394.991821,61.689884 394.991821,72.540062 
	C392.791443,71.653976 391.021973,70.941414 389.285645,70.242203 
	C386.186462,70.869698 382.555847,72.268806 378.960175,72.184143 
	C372.888519,72.041206 368.787231,67.947197 368.333527,61.651600 
	C367.870850,55.231998 368.231171,48.753078 368.231171,42.069225 
	C369.958130,42.069225 371.349304,42.069225 373.160126,42.069225 
	C373.160126,47.594589 373.059143,52.893417 373.185577,58.186817 
	C373.344818,64.851311 376.342743,68.129189 381.883026,67.992828 
	C387.190125,67.862213 389.979645,64.617500 390.100891,58.248806 
	C390.186493,53.753899 390.123383,49.256157 390.131927,44.285061 
z"/>
<path fill="#F2F2F2" opacity="1.000000" stroke="none" 
	d="
M179.154419,52.238968 
	C176.926651,58.008129 174.737427,63.377338 172.760651,68.823662 
	C171.926422,71.122078 170.734879,72.835464 168.199463,71.928017 
	C166.667435,71.379692 164.826401,70.144753 164.242554,68.750137 
	C160.603760,60.058453 157.280853,51.234528 153.799408,42.316490 
	C157.737808,40.775707 159.571686,42.230324 160.779266,45.900944 
	C162.997543,52.643669 165.606171,59.257961 168.469223,67.062988 
	C171.321167,59.272942 173.937866,52.590485 176.187744,45.786732 
	C177.339066,42.305065 179.077499,40.813461 183.038422,42.327694 
	C181.786148,45.506142 180.532471,48.688168 179.154419,52.238968 
z"/>
<path fill="#58D6DB" opacity="1.000000" stroke="none" 
	d="
M361.693909,41.845589 
	C361.193268,44.041340 360.802185,46.667892 359.318726,48.304058 
	C354.167145,53.986031 353.775757,59.289577 359.185883,65.007919 
	C360.844391,66.760872 361.854309,69.127480 363.322296,71.470100 
	C359.755035,72.677155 357.460815,72.038651 355.820435,68.783020 
	C354.567139,66.295624 352.820129,64.056969 351.298767,61.716923 
	C346.366547,64.192886 347.491608,73.223953 338.791260,71.793076 
	C341.569031,67.522499 344.336243,63.695301 346.577057,59.581390 
	C347.317596,58.221851 347.318634,55.793301 346.588318,54.423897 
	C344.413940,50.346855 341.708344,46.553123 339.054810,42.405621 
	C342.581390,41.155441 344.897064,41.728058 346.561401,44.982632 
	C347.838409,47.479679 349.581940,49.738140 351.490326,52.675934 
	C353.374603,49.710934 354.792450,46.961838 356.725006,44.641426 
	C357.812012,43.336216 359.748718,42.738659 361.693909,41.845589 
z"/>
<path fill="#F2F2F2" opacity="1.000000" stroke="none" 
	d="
M151.668106,43.981358 
	C150.823807,45.129257 150.045410,46.453297 149.126099,46.559689 
	C143.661682,47.192104 141.912857,50.593777 141.916306,55.514355 
	C141.919998,60.807781 141.917145,66.101212 141.917145,71.799553 
	C140.131866,71.879776 138.580688,71.949478 136.872055,72.026253 
	C136.872055,61.902069 136.872055,52.130142 136.872055,41.199078 
	C139.211227,42.159718 141.086014,42.929646 143.532440,43.934334 
	C144.591995,43.433357 146.723862,42.183208 149.024063,41.498421 
	C149.642792,41.314220 150.773315,42.849129 151.668106,43.981358 
z"/>
<path fill="#FFFFFF" opacity="1.000000" stroke="none" 
	d="
M188.000000,47.096794 
	C188.000000,45.142555 188.000000,43.677437 188.000000,42.020638 
	C189.779678,42.020638 191.181656,42.020638 192.800385,42.020638 
	C192.800385,51.902832 192.800385,61.662575 192.800385,71.816223 
	C191.401535,71.890816 189.992920,71.965927 188.000000,72.072197 
	C188.000000,63.787125 188.000000,55.686520 188.000000,47.096794 
z"/>
<path fill="#ECECEC" opacity="1.000000" stroke="none" 
	d="
M190.919159,30.062681 
	C192.150665,31.495546 193.486618,32.841251 193.652664,34.318455 
	C193.737000,35.068722 191.803726,36.558662 190.613708,36.771858 
	C189.713058,36.933205 188.028519,35.838612 187.593658,34.889999 
	C186.333664,32.141315 187.823410,30.608896 190.919159,30.062681 
z"/>
<path fill="#010202" opacity="1.000000" stroke="none" 
	d="
M46.014015,69.713310 
	C44.371346,68.632774 42.766392,67.200188 41.053162,65.449890 
	C44.953140,63.621609 46.605389,64.989868 46.014015,69.713310 
z"/>
<path fill="#010202" opacity="1.000000" stroke="none" 
	d="
M61.522636,29.166956 
	C60.602776,30.290180 59.829853,31.198923 57.871132,33.501839 
	C58.057751,29.788355 58.182079,27.314419 58.350185,23.969299 
	C60.009689,26.460606 60.839626,27.706541 61.522636,29.166956 
z"/>
<path fill="#010202" opacity="1.000000" stroke="none" 
	d="
M31.044048,61.590401 
	C29.782900,62.372425 28.583996,62.825069 26.513226,63.606884 
	C27.194548,61.975124 27.483192,61.283821 27.961710,60.487747 
	C29.386139,59.319767 30.620695,58.256557 31.855251,57.193352 
	C32.195545,57.472836 32.535835,57.752319 32.876129,58.031799 
	C32.286182,59.108204 31.696238,60.184612 31.044048,61.590401 
z"/>
<path fill="#010202" opacity="1.000000" stroke="none" 
	d="
M64.419388,17.068615 
	C64.912796,15.783257 65.443634,14.806867 65.974464,13.830476 
	C66.427521,14.116891 66.880569,14.403305 67.333626,14.689719 
	C67.547119,15.819102 67.760612,16.948484 68.082863,18.653208 
	C66.470337,18.085928 65.463577,17.731756 64.419388,17.068615 
z"/>
<path fill="#010202" opacity="1.000000" stroke="none" 
	d="
M36.964951,62.740170 
	C36.974731,62.354019 36.984516,61.967869 36.997147,61.290859 
	C37.000000,61.000000 37.002232,60.997711 37.002232,60.997711 
	C38.173458,60.788681 39.344685,60.579647 41.617477,60.174015 
	C40.181400,61.888531 39.427910,62.788109 38.252506,63.592327 
	C37.542042,63.244701 37.253498,62.992435 36.964951,62.740170 
z"/>
<path fill="#010202" opacity="1.000000" stroke="none" 
	d="
M71.642357,26.896557 
	C70.672852,26.962736 70.019424,26.962736 68.725754,26.962736 
	C69.753868,25.704855 70.527214,24.758673 72.189171,22.725298 
	C72.069611,24.852425 72.014023,25.841402 71.642357,26.896557 
z"/>
<path fill="#010202" opacity="1.000000" stroke="none" 
	d="
M50.102505,62.980522 
	C50.594738,63.386940 50.752117,63.926498 50.857853,64.749138 
	C50.160957,65.599739 49.515701,66.167267 48.870445,66.734787 
	C48.563473,66.517189 48.256496,66.299583 47.949524,66.081985 
	C48.555565,65.092545 49.161606,64.103096 50.102505,62.980522 
z"/>
<path fill="#010202" opacity="1.000000" stroke="none" 
	d="
M36.998856,61.001144 
	C36.063225,60.594349 35.128738,60.186409 34.194252,59.778465 
	C34.498821,59.316212 34.803391,58.853958 35.107964,58.391701 
	C35.714870,59.032398 36.321770,59.673092 36.965450,60.655746 
	C37.002232,60.997711 37.000000,61.000000 36.998856,61.001144 
z"/>
<path fill="#010202" opacity="1.000000" stroke="none" 
	d="
M58.725338,15.005652 
	C58.571697,14.375977 58.618561,13.940962 58.665421,13.505947 
	C59.041645,13.683961 59.417866,13.861974 59.794090,14.039987 
	C59.504673,14.426762 59.215256,14.813538 58.725338,15.005652 
z"/>
<path fill="#010202" opacity="1.000000" stroke="none" 
	d="
M55.002785,20.176296 
	C55.351437,20.349489 55.623226,20.724518 55.758583,21.143610 
	C55.784771,21.224693 55.277832,21.477959 55.016819,21.651794 
	C54.970657,21.232363 54.924496,20.812931 55.002785,20.176296 
z"/>
<path fill="#010202" opacity="1.000000" stroke="none" 
	d="
M49.607857,70.780136 
	C49.467075,71.208763 49.193073,71.470398 48.900894,71.709846 
	C48.889153,71.719467 48.705265,71.519012 48.601589,71.416443 
	C48.891533,71.147369 49.181473,70.878288 49.607857,70.780136 
z"/>
<path fill="#1A3F41" opacity="1.000000" stroke="none" 
	d="
M36.897491,63.035713 
	C37.253498,62.992435 37.542042,63.244701 37.970863,63.749451 
	C38.111137,64.001938 38.018272,64.437073 38.033569,64.659012 
	C37.696442,64.763657 37.344013,64.646370 36.997944,64.220520 
	C36.946209,63.718391 36.888119,63.524826 36.897491,63.035713 
z"/>
<path fill="#010202" opacity="1.000000" stroke="none" 
	d="
M42.533611,61.551682 
	C42.476738,61.585934 42.590485,61.517426 42.533611,61.551682 
z"/>
<path fill="#010202" opacity="1.000000" stroke="none" 
	d="
M55.465881,28.447685 
	C55.523357,28.412931 55.408401,28.482441 55.465881,28.447685 
z"/>
<path fill="#091516" opacity="1.000000" stroke="none" 
	d="
M40.109459,35.980343 
	C45.780174,35.497459 43.356712,39.097546 44.042843,41.622177 
	C41.862625,41.622177 40.301685,41.622177 37.547115,41.622177 
	C38.348522,39.498211 39.010712,37.743217 40.109459,35.980343 
z"/>
<path fill="#0A1819" opacity="1.000000" stroke="none" 
	d="
M42.612862,34.482265 
	C37.626690,35.251930 37.515469,32.715729 38.423592,29.183945 
	C40.058849,29.183945 41.636265,29.183945 44.058163,29.183945 
	C43.697571,30.991854 43.358135,32.693691 42.612862,34.482265 
z"/>
<path fill="#081313" opacity="1.000000" stroke="none" 
	d="
M36.345474,30.204849 
	C37.046288,35.212425 34.376801,34.948883 31.049864,34.173580 
	C31.049864,32.510857 31.049864,30.941689 31.049864,28.701891 
	C33.001015,29.112642 34.645931,29.458925 36.345474,30.204849 
z"/>
<path fill="#04090A" opacity="1.000000" stroke="none" 
	d="
M31.403353,41.424656 
	C30.973478,39.661880 30.877609,38.202740 30.756907,36.365593 
	C32.623104,36.365593 34.289146,36.365593 36.146370,36.365593 
	C36.146370,38.049198 36.146370,39.627121 36.146370,41.728294 
	C34.556217,41.728294 33.146790,41.728294 31.403353,41.424656 
z"/>
<path fill="#101010" opacity="1.000000" stroke="none" 
	d="
M257.213745,52.411957 
	C256.413300,53.460865 255.552353,54.599468 254.653534,54.630203 
	C249.546402,54.804863 244.430206,54.714817 238.892075,54.714817 
	C239.093369,49.872139 241.403564,47.061543 245.681641,45.987373 
	C251.008026,44.649990 254.537796,46.611248 257.213745,52.411957 
z"/>
<path fill="#050C0D" opacity="1.000000" stroke="none" 
	d="
M321.945526,54.749680 
	C318.347412,54.749641 315.224731,54.749641 312.100433,54.749641 
	C312.297272,48.684883 315.535645,45.625435 321.175354,45.724327 
	C326.636108,45.820080 329.657013,48.819977 329.765778,54.749722 
	C327.316162,54.749722 324.868561,54.749722 321.945526,54.749680 
z"/>
<path fill="#121212" opacity="1.000000" stroke="none" 
	d="
M113.412491,45.865303 
	C121.173363,45.788383 123.847839,47.918686 124.511208,54.517433 
	C118.446442,54.517433 112.401840,54.517433 106.111633,54.517433 
	C106.391869,49.866272 108.718628,47.129265 113.412491,45.865303 
z"/>
</svg>